<?xml version="1.0" encoding="utf-8"?>
<!-- Generator: Adobe Illustrator 24.0.3, SVG Export Plug-In . SVG Version: 6.00 Build 0)  -->
<svg version="1.1" id="Layer_1" xmlns="http://www.w3.org/2000/svg" xmlns:xlink="http://www.w3.org/1999/xlink" x="0px" y="0px"
	 viewBox="0 0 720 720" style="enable-background:new 0 0 720 720;" xml:space="preserve">
<style type="text/css">
	.st0{fill:#4E311D;}
</style>
<path class="st0" d="M423.69,550.55c0-9.24-4.78-17.41-12.14-22.53c4.91-5.27,7.92-12.14,7.92-19.69
	c0-16.54-14.32-29.95-31.98-29.95c-3.27,0-6.43,0.47-9.4,1.32c-5.82-5.34-13.78-8.64-22.57-8.64c-17.83,0-32.29,13.54-32.29,30.25
	c0,5.08,1.35,9.86,3.72,14.07c-12.34,7.63-20.5,20.72-20.5,35.61c0,22.73,18.99,41.25,42.91,42.53c4.29,7.6,12.79,12.78,22.6,12.78
	c14.12,0,25.56-10.72,25.56-23.95c0-1.34-0.15-2.65-0.37-3.93C412.09,576.84,423.69,564.97,423.69,550.55z"/>
</svg>
