<?xml version="1.0" encoding="utf-8"?>
<!-- Generator: Adobe Illustrator 24.0.3, SVG Export Plug-In . SVG Version: 6.00 Build 0)  -->
<svg version="1.1" xmlns="http://www.w3.org/2000/svg" xmlns:xlink="http://www.w3.org/1999/xlink" x="0px" y="0px"
	 viewBox="0 0 720 720" style="enable-background:new 0 0 720 720;" xml:space="preserve">
<style type="text/css">
	.st0{fill:#E7B493;}
	.st1{fill:#4E311D;}
	.st2{fill:#FFFFFF;}
	.st3{fill:#3C2E29;}
</style>
<g id="base">
	<g id="skin2">
		<path class="st0" d="M-233.85,296.05c0,0-0.52-9.84-5.65-15.2c-0.58-0.6-1.83-1.87-3.56-1.94c-1.21-0.05-2.43,0.52-3.76,1.69
			c-0.27,0.24-0.53,0.49-0.79,0.75c-0.49-11.85-2.48-22.96-9.6-32.38c-25.28-33.45-97.93-29.42-120.12,4.28
			c-5.45,8.28-7.16,17.29-7.73,30.48c-0.94-1.15-1.93-2.21-2.98-3.13c-1.34-1.17-2.58-1.74-3.8-1.69c-1.76,0.07-3.02,1.34-3.61,1.94
			c-5.2,5.36-5.72,15.2-5.72,15.2s-0.82,15.38,12.02,30.71c1.42,1.69,3.38,3.73,5.67,3.54c0.66-0.05,1.31-0.29,1.93-0.68
			c0.82,2.75,1.8,5.52,3.01,8.21c1.55,3.46,3.18,6.01,4.28,7.67c17.93,27.18,27.39,41.52,42.16,46.89c0,2.03,0.02,4.6,0.03,7.92
			c0.05,11.72-0.06,14.58,1.03,16.56c1.04,1.89,2.44,1.84,4.07,1.33c6.91-2.17,13.91-1.89,20.87,0.78c1.18,0.45,3.17,4.33,3.48-0.93
			c0.49-8.42,0.54-17.53,0.18-26.11c14.34-5.6,23.58-19.96,41.07-47.87c3.76-6,6.68-10.99,8.54-14.23c0.5,0.26,1.01,0.42,1.54,0.46
			c2.51,0.21,4.58-2.28,5.6-3.54C-233.05,311.16-233.85,296.05-233.85,296.05z"/>
	</g>
</g>
<g id="also_skin">
	<path class="st0" d="M-364.59,1038.14c0.11,5.97,0.43,15.36,1.52,26.85c2.55,26.93,6.98,40.91-0.32,46.7
		c-3.75,2.98-9.76,3.13-12.04,3.19c-1.94,0.05-8.76,0.22-12.96-3.04c-6.11-4.75-4.86-15.34-3.54-27.35
		c1.16-10.59,2.69-26.08,4.05-46.09C-380.12,1038.31-372.36,1038.22-364.59,1038.14z"/>
	<path class="st0" d="M-284.94,1043.76c-0.11,5.97-0.43,15.36-1.52,26.85c-2.55,26.93-6.98,40.91,0.32,46.7
		c3.75,2.98,9.77,3.13,12.04,3.19c1.94,0.05,8.76,0.22,12.96-3.04c6.11-4.75,4.86-15.34,3.55-27.35
		c-1.16-10.59-2.69-26.08-4.05-46.09C-269.41,1043.93-277.18,1043.84-284.94,1043.76z"/>
</g>
<g id="hair">
	<g id="hair2">
		<path class="st1" d="M-207.35,311.09c2.56-8.73,1.32-17.25-2.52-25.67c-2.84-6.22-4.84-12.94-2.04-20.01
			c1.92-4.84-0.84-10.29,0.29-14.56c3.17-11.93-4.38-21.74-5.01-32.86c-0.26-4.57-4.7-8.97-5.23-14.4
			c-0.29-2.98-2.67-5.32-5.23-7.01c-1.69-1.12-2.21-2.42-2.34-4.49c-0.57-9.34-4.59-14.23-13.74-16.39
			c-2.64-0.62-4.01-1.74-4.9-4.14c-3.7-9.93-10.87-14.85-21.49-14.06c-3.68,0.27-5.66-1.4-7.79-4c-7.03-8.6-13.62-10.4-24.29-7.05
			c-2.21,0.69-4.42,1.39-6.61,2.14c-1.43,0.49-2.78,0.78-4.35,0.3c-6.09-1.85-12.23-3.55-18.35-5.31c-2.66,0-5.32,0-7.99,0
			c-5.02,2.12-9.97,4.38-13.7,8.52c-3.19,3.54-7.17,4.91-11.78,5.54c-7.68,1.06-15.38,3.01-19.89,9.92
			c-3.97,6.09-9.38,10.11-15.24,13.96c-8.43,5.53-13.86,13.13-15.56,23.3c-0.36,2.18-0.31,4.59-1.99,6.54
			c-8.66,10.02-6.91,22.62-8.37,34.42c-0.04,0.31,0.1,0.66,0.21,0.97c0.61,1.85,0.27,3.55-0.53,5.29
			c-3.16,6.87-2.47,13.67,1.14,20.06c2.05,3.63,1.45,6.46-0.95,9.47c-3.39,4.24-5.84,9.16-6.06,14.5c-0.46,11.08-1.24,22.33,2.89,33
			c1.76,4.54,2.1,8.75,0.44,13.45c-1.43,4.04-1.87,8.39-1.11,12.79c2.06,12.01,9.03,20.18,19.93,24.89
			c5.33,2.3,7.35,5.81,7.58,11.42c0.39,9.47,4.88,17.09,12.06,23.15c3.23,2.73,7.33,3.89,11.38,5.83c9.31,1.19,17.02,1.91,22.4,2.35
			c17.72,1.45,42.78,3.38,73.55-0.14c7.58-0.87,13.74-1.86,17.65-2.55c17.95-3.16,27.65-13.78,30.91-30.88
			c0.12-0.64,0.49-1.24,0.6-1.89c0.7-4.03,2.94-6.22,7.01-7.33c8.06-2.21,13.25-7.71,16.37-15.45c3.79-9.43,3.11-18.82,0.49-28.32
			c-0.7-2.52-2.03-5-1.28-7.75C-209.21,322.87-209.05,316.88-207.35,311.09z"/>
	</g>
</g>
<g id="shirt">
	<path class="st2" d="M-227.95,463.42c-5.3-17.18-12.94-23.53-17.6-27.58c-8.71-7.58-18.09-10.79-23.58-12.61
		c-11.71-3.89-21.95-4.34-28.48-4.14c-13.61-0.08-11.6,2.18-23.94,2.14c-13.93-0.05-24.44-4.15-38.2-1.37
		c-9.25,1.87-19.54,6.74-20.09,7.01c-1.87,0.89-3.63,1.84-3.63,1.84c-5.51,2.96-9.51,5.9-10.86,6.94
		c-10.54,8.15-14.85,22.69-16.31,28.29c-12.69,48.48-8.64,104.71-8.64,104.71c1.78,24.79,4.19,62.31,6.13,110.61
		c7.77-9.8,15.54-19.61,23.31-29.41c2.15-29.32,2.67-52.95,2.74-69.13c0.08-18.32-0.41-24.75,0.99-38.43
		c2.85-27.98,10.52-55.97,12.96-55.61c0.6,0.09,0.79,1.9,0.88,2.79c1.95,19.09-7.86,142.08-52.08,546.75
		c23.12,10.06,60.69,23.06,108.59,25.3c53.02,2.48,95.16-9.31,119.79-18.27c-16.49-86.93-37.96-203.93-40.82-239.97
		c-0.04-0.48-0.94-11.85-2.13-27.11c-4.6-58.91-7.46-97.52-8.57-112.16c-8.37-110.29-17.98-181.7-14.95-182.11
		c1.9-0.26,7.3,27.5,8.82,35.33c3.49,17.96,5.12,31.57,6.7,48.63c1.33,14.43,2.52,29.2,3.53,44.29c0.91,13.54,1.64,26.85,2.21,39.9
		c8.23,9.47,16.46,18.94,24.69,28.41c-0.05-48.33,0.82-85.93,1.58-110.77C-214.9,567.68-213.16,511.33-227.95,463.42z"/>
</g>
<g id="skin">
	<g id="skin2_1_">
		<path class="st0" d="M-234.19,296.05c0,0-0.52-9.84-5.65-15.2c-0.58-0.6-1.83-1.87-3.56-1.94c-1.21-0.05-2.43,0.52-3.76,1.69
			c-0.27,0.24-0.53,0.49-0.79,0.75c-0.49-11.85-2.48-22.96-9.6-32.38c-25.28-33.45-97.93-29.42-120.12,4.28
			c-5.45,8.28-7.16,17.29-7.73,30.48c-0.94-1.15-1.93-2.21-2.98-3.13c-1.34-1.17-2.58-1.74-3.8-1.69c-1.76,0.07-3.02,1.34-3.61,1.94
			c-5.2,5.36-5.72,15.2-5.72,15.2s-0.82,15.38,12.02,30.71c1.42,1.69,3.38,3.73,5.67,3.54c0.66-0.05,1.31-0.29,1.93-0.68
			c1.63,5.5,3.95,11.09,7.28,15.88c3.25,4.68,6.31,5.82,7.97,6.23c2.98,0.73,6.29,0.05,10.13-1.95c5.25-2.73,9.71-6.39,13.29-11.1
			c2.86-3.76,6.54-5.84,11.22-6.72c6.62-1.24,13.26-0.86,19.9-0.74c9.54,0.18,18.29,2.8,25.95,8.75c3.8,2.95,7.81,5.55,12.41,7.27
			c4.94,1.85,8.99,0.7,12.03-3.19c3.47-4.44,6.33-9.23,8.54-14.23c0.5,0.26,1.01,0.42,1.54,0.46c2.26,0.19,4.2-1.85,5.6-3.54
			C-233.37,311.43-234.19,296.05-234.19,296.05z"/>
		<path class="st0" d="M-342.43,439.01c0,0-0.93-0.78-1.89-1.64c-4.5-4.08-7.64-9.06-10.35-14.43c-1.44-2.86-0.92-3.99,2.19-4.66
			c11.38-2.43,22.89-3.74,34.5-3.62c11.26,0.11,22.43,1.34,33.4,4.26c1.57,0.42,2.46,0.89,2.74,1.59c0.4,1.02-0.39,2.22-0.73,2.72
			c-8.5,12.48-12,15.09-12,15.09c-2.82,2.11-10.87,7.94-22.88,8.4c0,0-12.92,0.49-23.57-6.69
			C-341.75,439.54-342.43,439.01-342.43,439.01z"/>
		<path class="st0" d="M-311.15,342.78c5.08,0.56,7.8,0.85,9.7,3.08c1.88,2.21,2.43,5.55,1.53,9.9c-0.78,3.76-2.2,7.34-4.51,10.43
			c-1.66,2.23-3.46,5.09-6.69,4.29c-3.26-0.81-3.52-4.12-3.77-6.93c-0.22-2.55,0.02-4.96-3.9-4.47c-2.12,0.27-2.78,0.88-2.91,2.96
			c-0.22,3.28-0.35,7.31-4.23,8.15c-4.16,0.9-6.45-2.66-8.55-5.69c-0.75-1.08-1.33-2.3-1.84-3.52c-2.6-6.21-2.95-10.71-0.96-13.63
			c1.61-2.36,5.28-2.95,12.68-4.09C-317.65,342.19-313.15,342.56-311.15,342.78z"/>
		<path class="st0" d="M-332.43,411.14c-0.05-5.27-0.18-6.59,0.81-7.31c0.96-0.69,2.22-0.43,4.4,0.35c6.8,2.44,13.79,2.92,20.77,1
			c1.17-0.32,3.24-1.73,3.52,0.72c0.49,4.41,0.48,9.2-0.06,13.59c-0.3,2.48-2.29,0.65-3.48,0.44c-6.95-1.26-13.96-1.39-20.87-0.37
			c-1.63,0.24-3.03,0.27-4.07-0.63C-332.49,418.01-332.38,416.66-332.43,411.14z"/>
	</g>
	<path class="st0" d="M-238.85,652.71c-0.53,0.68-1.26,1.62-2.15,2.71c-12.11,14.75-21.87,18.79-20.67,22.93
		c0.83,2.84,5.22,4.23,10.05,4.93c-21.95,12.65-32.94,27.75-29.48,36.59c2.29,5.86,11.04,9.22,18.22,8.52
		c14.27-1.39,22.94-19.06,30.44-34.42c4.65-9.51,7.3-17.91,8.84-23.71C-228.69,664.41-233.77,658.56-238.85,652.71z"/>
	<path class="st0" d="M-391.56,652c0.2,1.6,0.66,3.99,1.85,6.64c5.59,12.46,20.48,15.06,19.9,18.93c-0.21,1.42-2.51,3.08-11.84,4.1
		c21.92,14.66,31.41,30.84,26.13,39.46c-3.5,5.71-13.64,8.34-21.39,7.02c-15.77-2.7-23.12-24.75-27.55-37.34
		c-2.33-6.62-3.88-13.79-3.88-13.79c-0.29-1.33-0.5-2.42-0.62-3.06C-403.15,666.63-397.36,659.32-391.56,652z"/>
</g>
<g id="shoes">
	<path class="st1" d="M-369.62,1105.05c-1.11,0.06-0.74-7.8-5.02-12.28c-4.18-4.38-11.58-4.28-17.88-3.24c0.1-0.9,0.2-1.81,0.3-2.72
		c0.13-1.19,0.27-2.38,0.41-3.56c2.37-0.21,7.13-0.32,12.5,1.91c4.98,2.06,8.13,5.16,9.68,6.92c1.27-1.83,3.35-4.26,6.57-6.06
		c0.79-0.44,1.56-0.79,2.29-1.08c0.23,1.86,0.46,3.73,0.68,5.59c-1.03,0-2.77,0.15-4.36,1.2
		C-369.62,1095.16-368.37,1104.99-369.62,1105.05z"/>
	<path class="st1" d="M-359.56,1103.59c-1.16,1.58-3.48,4.28-7.28,6.24c-1.54,0.8-7.73,3.87-15.15,1.56
		c-6.55-2.04-9.87-6.98-10.76-8.4c0.12,1.85,0.63,5.21,2.98,8.25c5.49,7.12,15.8,5.65,17.7,5.31c2.26-0.39,9.44-1.61,11.86-7.26
		C-359.27,1107.11-359.36,1104.98-359.56,1103.59z"/>
	<path class="st1" d="M-279.92,1110.67c1.11,0.06,0.74-7.8,5.02-12.28c4.18-4.38,11.58-4.28,17.88-3.24c-0.1-0.9-0.2-1.81-0.3-2.72
		c-0.13-1.19-0.27-2.38-0.41-3.56c-2.37-0.21-7.13-0.32-12.5,1.91c-4.98,2.06-8.13,5.16-9.69,6.92c-1.27-1.83-3.35-4.26-6.57-6.06
		c-0.79-0.44-1.56-0.79-2.29-1.08c-0.23,1.86-0.46,3.73-0.68,5.59c1.03,0,2.77,0.15,4.36,1.2
		C-279.92,1100.78-281.16,1110.61-279.92,1110.67z"/>
	<path class="st1" d="M-289.98,1109.21c1.16,1.58,3.48,4.28,7.28,6.24c1.54,0.8,7.73,3.87,15.16,1.56c6.55-2.04,9.88-6.98,10.77-8.4
		c-0.12,1.85-0.63,5.21-2.98,8.25c-5.5,7.12-15.8,5.65-17.71,5.31c-2.26-0.39-9.44-1.61-11.87-7.26
		C-290.27,1112.73-290.18,1110.6-289.98,1109.21z"/>
</g>
<g id="eyes">
	<g id="eyes2">
		<path class="st3" d="M-348.55,285.83c-0.6,2.96-3.24,5.91-6.81,5.97c-3.7,0.07-6.53-2.99-7.1-6.08c-0.81-4.43,2.96-9.3,7.31-9.12
			C-350.98,276.79-347.69,281.58-348.55,285.83z"/>
		<path class="st3" d="M-272.37,285.83c-0.6,2.96-3.24,5.91-6.81,5.97c-3.7,0.07-6.53-2.99-7.1-6.08c-0.81-4.43,2.96-9.3,7.31-9.12
			C-274.8,276.79-271.51,281.58-272.37,285.83z"/>
	</g>
</g>
</svg>
