<?xml version="1.0" encoding="utf-8"?>
<!-- Generator: Adobe Illustrator 24.0.3, SVG Export Plug-In . SVG Version: 6.00 Build 0)  -->
<svg version="1.1" id="Layer_1" xmlns="http://www.w3.org/2000/svg" xmlns:xlink="http://www.w3.org/1999/xlink" x="0px" y="0px"
	 viewBox="0 0 720 720" style="enable-background:new 0 0 720 720;" xml:space="preserve">
<style type="text/css">
	
</style>
<g id="skin2">
	<path class="skin2" d="M443.8,327.12c0,0-0.52-9.84-5.65-15.2c-0.58-0.6-1.83-1.87-3.56-1.94c-1.21-0.05-2.43,0.52-3.76,1.69
		c-0.27,0.24-0.53,0.49-0.79,0.75c-0.49-11.85-2.48-22.96-9.6-32.38c-25.28-33.45-97.93-29.42-120.12,4.28
		c-5.45,8.28-7.16,17.29-7.73,30.48c-0.94-1.15-1.93-2.21-2.98-3.13c-1.34-1.17-2.58-1.74-3.8-1.69c-1.76,0.07-3.02,1.34-3.61,1.94
		c-5.2,5.36-5.72,15.2-5.72,15.2s-0.82,15.38,12.02,30.71c1.42,1.69,3.38,3.73,5.67,3.54c0.66-0.05,1.31-0.29,1.93-0.68
		c0.82,2.75,1.8,5.52,3.01,8.21c1.55,3.46,3.18,6.01,4.28,7.67c17.93,27.18,27.39,41.52,42.16,46.89c0,2.03,0.02,4.6,0.03,7.92
		c0.05,11.72-0.06,14.58,1.03,16.56c1.04,1.89,2.44,1.84,4.07,1.33c6.91-2.17,13.91-1.89,20.87,0.78c1.18,0.45,3.17,4.33,3.48-0.93
		c0.49-8.42,0.54-17.53,0.18-26.11c14.34-5.6,23.58-19.96,41.07-47.87c3.76-6,6.68-10.99,8.54-14.23c0.5,0.26,1.01,0.42,1.54,0.46
		c2.51,0.21,4.58-2.28,5.6-3.54C444.6,342.23,443.8,327.12,443.8,327.12z"/>
</g>
<g id="hair2">
	<path class="hair2" d="M471.67,334.11c2.56-8.73,1.32-17.25-2.52-25.67c-2.84-6.22-4.84-12.94-2.04-20.01
		c1.92-4.84-0.84-10.29,0.29-14.56c3.17-11.93-4.38-21.74-5.01-32.86c-0.26-4.57-4.7-8.97-5.23-14.4c-0.29-2.98-2.67-5.32-5.23-7.01
		c-1.69-1.12-2.21-2.42-2.34-4.49c-0.57-9.34-4.59-14.23-13.74-16.39c-2.64-0.62-4.01-1.74-4.9-4.14
		c-3.7-9.93-10.87-14.85-21.49-14.06c-3.68,0.27-5.66-1.4-7.79-4c-7.03-8.6-13.62-10.4-24.29-7.05c-2.21,0.69-4.42,1.39-6.61,2.14
		c-1.43,0.49-2.78,0.78-4.35,0.3c-6.09-1.85-12.23-3.55-18.35-5.31c-2.66,0-5.32,0-7.99,0c-5.02,2.12-9.97,4.38-13.7,8.52
		c-3.19,3.54-7.17,4.91-11.78,5.54c-7.68,1.06-15.38,3.01-19.89,9.92c-3.97,6.09-9.38,10.11-15.24,13.96
		c-8.43,5.53-13.86,13.13-15.56,23.3c-0.36,2.18-0.31,4.59-1.99,6.54c-8.66,10.02-6.91,22.62-8.37,34.42
		c-0.04,0.31,0.1,0.66,0.21,0.97c0.61,1.85,0.27,3.55-0.53,5.29c-3.16,6.87-2.47,13.67,1.14,20.06c2.05,3.63,1.45,6.46-0.95,9.47
		c-3.39,4.24-5.84,9.16-6.06,14.5c-0.46,11.08-1.24,22.33,2.89,33c1.76,4.54,2.1,8.75,0.44,13.45c-1.43,4.04-1.87,8.39-1.11,12.79
		c2.06,12.01,9.03,20.18,19.93,24.89c5.33,2.3,7.35,5.81,7.58,11.42c0.39,9.47,4.88,17.09,12.06,23.15
		c3.23,2.73,7.33,3.89,11.38,5.83c9.31,1.19,17.02,1.91,22.4,2.35c17.72,1.45,42.78,3.38,73.55-0.14
		c7.58-0.87,13.74-1.86,17.65-2.55c17.95-3.16,27.65-13.78,30.91-30.88c0.12-0.64,0.49-1.24,0.6-1.89c0.7-4.03,2.94-6.22,7.01-7.33
		c8.06-2.21,13.25-7.71,16.37-15.45c3.79-9.43,3.11-18.82,0.49-28.32c-0.7-2.52-2.03-5-1.28-7.75
		C469.81,345.89,469.97,339.9,471.67,334.11z"/>
</g>
<g id="shirt2">
	<path class="shirt2" d="M446.41,493.84c-4.86-8.28-9.14-15.09-12.41-20.15c-5.37-8.32-6.89-10.01-9.23-11.75
		c-6.42-4.76-14.81-7.25-16.25-7.64c-14.87-4.06-28.48-4.14-28.48-4.14c-13.61-0.08-11.6,2.18-23.94,2.14
		c-11.6-0.04-31.32-2.11-38.2-1.37c-4.97,0.53-10.01,2.86-10.01,2.86c-5.94,2.05-10.6,4.32-13.71,5.99
		c-5.45,2.92-8.31,4.26-10.86,6.94c-2.33,2.45-4.34,5.91-8.34,12.84c-3.61,6.24-6.23,11.63-7.97,15.45c2.83,0,11.76-0.01,14.59-0.01
		c0.87,0,12.88-0.01,16.32-0.01c0.48,0,16.31-0.01,17.63-0.01c19.43-0.01,51.12-0.03,84.49-0.38c8.75-0.09,14.98-0.18,18.48-0.23
		C427.8,494.21,437.1,494.04,446.41,493.84z"/>
</g>
<g id="shirt22">
	<path class="shirt22" d="M370.27,435.73c-2.33,0.15-4.66,0.35-6.98,0.58C365.61,436.28,367.94,436.08,370.27,435.73z"/>
	<path class="shirt22" d="M371.21,435.6c-0.31,0.05-0.62,0.09-0.94,0.13c1.4-0.09,2.79-0.16,4.19-0.22
		C373.81,434.81,372.19,435.43,371.21,435.6z"/>
	<path class="shirt22" d="M427.96,472.16c-0.01,0.02-0.03,0.03-0.04,0.05C427.94,472.2,427.95,472.18,427.96,472.16
		C427.97,472.17,427.97,472.17,427.96,472.16z"/>
	<path class="st1" d="M287.18,474.12c-0.03,0.02-0.06,0.02-0.1,0.05c0,0.01,0.01,0.02,0.01,0.03c0.02,0.01,0.03,0.02,0.04,0.03
		C287.16,474.19,287.17,474.15,287.18,474.12z"/>
	<path class="shirt22" d="M427.91,472.23c0.02-0.02,0.04-0.03,0.07-0.05l-0.01-0.01L427.91,472.23z"/>
	<path class="shirt22" d="M389.94,463.25c0.03-0.01,0.05-0.02,0.07-0.03c-0.01-0.02-0.01-0.03-0.01-0.05L389.94,463.25z"/>
	<path class="shirt22" d="M335.05,471.19c0.01,0.01,0.01,0.03,0.02,0.05c0.01,0,0.01,0,0.02,0L335.05,471.19z"/>
	<path class="shirt22" d="M387.98,466.24c0.01,0,0.02-0.01,0.03-0.01c0-0.01,0.01-0.02,0.01-0.03L387.98,466.24z"/>
	<path class="shirt22" d="M383.96,469.22c0.04,0.01,0.07,0.01,0.1,0.01c-0.02-0.02-0.03-0.04-0.05-0.06L383.96,469.22z"/>
	<path class="shirt22" d="M287.09,474.17c0,0.01,0.01,0.02,0.01,0.03c0.02,0.01,0.03,0.02,0.05,0.03L287.09,474.17z"/>
	<path class="shirt22" d="M287.14,474.22c0.02-0.03,0.03-0.07,0.04-0.1c-0.03,0.02-0.06,0.02-0.1,0.05
		C287.09,474.17,287.14,474.22,287.14,474.22z"/>
	<path class="shirt2" d="M312.51,480.7c-0.81-7.77-2.8-15.3-6.33-22.35c-0.95-1.9-1.83-3.6-4.4-2.89c-5.13,1.41-10.13,3.07-14.6,6.11
		c-1.45,0.99-2.36,2.03-2.66,3.26c-0.29,1.17,0.08,2.13,0.74,3.9c0.67,1.81,1.57,3.22,2.85,5.22c0.53,0.82,0.94,1.41,0.96,1.46
		c3.57,6.27,6.61,12.75,8.82,19.56c5.06,0,10.13-0.01,15.19-0.01C313.26,490.24,313.01,485.48,312.51,480.7z"/>
	<path class="shirt2" d="M427.87,471c0.07-0.13,0.21-0.59,0.56-1.09c2.83-4.15,1.48-7.04-2.64-9.25c-3.52-1.89-7.21-3.25-10.96-4.62
		c-4.11-1.51-5.56,0.11-6.81,3.68c-3.98,11.41-5.48,23.05-5.37,34.83c4.69-0.05,9.38-0.11,14.07-0.18c1.31-5.23,3.09-9.03,4.53-11.6
		C421.63,482.11,426.48,473.51,427.87,471z"/>
</g>
<g id="skin2">
	<path class="skin2" d="M443.46,327.12c0,0-0.52-9.84-5.65-15.2c-0.58-0.6-1.83-1.87-3.56-1.94c-1.21-0.05-2.43,0.52-3.76,1.69
		c-0.27,0.24-0.53,0.49-0.79,0.75c-0.49-11.85-2.48-22.96-9.6-32.38c-25.28-33.45-97.93-29.42-120.12,4.28
		c-5.45,8.28-7.16,17.29-7.73,30.48c-0.94-1.15-1.93-2.21-2.98-3.13c-1.34-1.17-2.58-1.74-3.8-1.69c-1.76,0.07-3.02,1.34-3.61,1.94
		c-5.2,5.36-5.72,15.2-5.72,15.2s-0.82,15.38,12.02,30.71c1.42,1.69,3.38,3.73,5.67,3.54c0.66-0.05,1.31-0.29,1.93-0.68
		c1.63,5.5,3.95,11.09,7.28,15.88c3.25,4.68,6.31,5.82,7.97,6.23c2.98,0.73,6.29,0.05,10.13-1.95c5.25-2.73,9.71-6.39,13.29-11.1
		c2.86-3.76,6.54-5.84,11.22-6.72c6.62-1.24,13.26-0.86,19.9-0.74c9.54,0.18,18.29,2.8,25.95,8.75c3.8,2.95,7.81,5.55,12.41,7.27
		c4.94,1.85,8.99,0.7,12.03-3.19c3.47-4.44,6.33-9.23,8.54-14.23c0.5,0.26,1.01,0.42,1.54,0.46c2.26,0.19,4.2-1.85,5.6-3.54
		C444.28,342.5,443.46,327.12,443.46,327.12z"/>
	<path class="skin2" d="M335.22,470.08c0,0-0.93-0.78-1.89-1.64c-4.5-4.08-7.64-9.06-10.35-14.43c-1.44-2.86-0.92-3.99,2.19-4.66
		c11.38-2.43,22.89-3.74,34.5-3.62c11.26,0.11,22.43,1.34,33.4,4.26c1.57,0.42,2.46,0.89,2.74,1.59c0.4,1.02-0.39,2.22-0.73,2.72
		c-8.5,12.48-12,15.09-12,15.09c-2.82,2.11-10.87,7.94-22.88,8.4c0,0-12.92,0.49-23.57-6.69
		C335.9,470.61,335.22,470.08,335.22,470.08z"/>
	<path class="skin2" d="M366.5,373.85c5.08,0.56,7.8,0.85,9.7,3.08c1.88,2.21,2.43,5.55,1.53,9.9c-0.78,3.76-2.2,7.34-4.51,10.43
		c-1.66,2.23-3.46,5.09-6.69,4.29c-3.26-0.81-3.52-4.12-3.77-6.93c-0.22-2.55,0.02-4.96-3.9-4.47c-2.12,0.27-2.78,0.88-2.91,2.96
		c-0.22,3.28-0.35,7.31-4.23,8.15c-4.16,0.9-6.45-2.66-8.55-5.69c-0.75-1.08-1.33-2.3-1.84-3.52c-2.6-6.21-2.95-10.71-0.96-13.63
		c1.61-2.36,5.28-2.95,12.68-4.09C360,373.26,364.5,373.63,366.5,373.85z"/>
	<path class="skin2" d="M345.22,442.21c-0.05-5.27-0.18-6.59,0.81-7.31c0.96-0.69,2.22-0.43,4.4,0.35c6.8,2.44,13.79,2.92,20.77,1
		c1.17-0.32,3.24-1.73,3.52,0.72c0.49,4.41,0.48,9.2-0.06,13.59c-0.3,2.48-2.29,0.65-3.48,0.44c-6.95-1.26-13.96-1.39-20.87-0.37
		c-1.63,0.24-3.03,0.27-4.07-0.63C345.16,449.08,345.27,447.73,345.22,442.21z"/>
</g>
<g id="eyes2">
	<path class="eyes2" d="M329.1,316.9c-0.6,2.96-3.24,5.91-6.81,5.97c-3.7,0.07-6.53-2.99-7.1-6.08c-0.81-4.43,2.96-9.3,7.31-9.12
		C326.67,307.86,329.96,312.65,329.1,316.9z"/>
	<path class="eyes2" d="M405.28,316.9c-0.6,2.96-3.24,5.91-6.81,5.97c-3.7,0.07-6.53-2.99-7.1-6.08c-0.81-4.43,2.96-9.3,7.31-9.12
		C402.85,307.86,406.14,312.65,405.28,316.9z"/>
</g>
</svg>
