<?xml version="1.0" encoding="utf-8"?>
<!-- Generator: Adobe Illustrator 24.0.3, SVG Export Plug-In . SVG Version: 6.00 Build 0)  -->
<svg version="1.1" xmlns="http://www.w3.org/2000/svg" xmlns:xlink="http://www.w3.org/1999/xlink" x="0px" y="0px"
	 viewBox="0 0 165.78 360.29" style="enable-background:new 0 0 165.78 360.29;" xml:space="preserve" id = "jesus2" visibility = "visible">
<style type="text/css">
	.st0{fill:#E7B493;}
	.st1{fill:#4E311D;}
	.st2{fill:#FFFFFF;}
	.st3{fill:#3C2E29;}
</style>
<g id="base">
	<g id="skin2_5_">
		<path class="st0" d="M116.63,59.59c0,0-0.2-3.85-2.21-5.94c-0.23-0.23-0.72-0.73-1.39-0.76c-0.47-0.02-0.95,0.2-1.47,0.66
			c-0.11,0.09-0.21,0.19-0.31,0.29c-0.19-4.63-0.97-8.97-3.75-12.65c-9.88-13.07-38.27-11.5-46.95,1.67
			c-2.13,3.24-2.8,6.76-3.02,11.91c-0.37-0.45-0.75-0.86-1.16-1.22c-0.52-0.46-1.01-0.68-1.49-0.66c-0.69,0.03-1.18,0.52-1.41,0.76
			c-2.03,2.09-2.24,5.94-2.24,5.94s-0.32,6.01,4.7,12c0.55,0.66,1.32,1.46,2.22,1.38c0.26-0.02,0.51-0.11,0.75-0.27
			c0.32,1.07,0.7,2.16,1.18,3.21c0.61,1.35,1.24,2.35,1.67,3c7.01,10.62,10.7,16.23,16.48,18.33c0,0.79,0.01,1.8,0.01,3.1
			c0.02,4.58-0.02,5.7,0.4,6.47c0.41,0.74,0.95,0.72,1.59,0.52c2.7-0.85,5.44-0.74,8.16,0.3c0.46,0.18,1.24,1.69,1.36-0.36
			c0.19-3.29,0.21-6.85,0.07-10.2c5.6-2.19,9.22-7.8,16.05-18.71c1.47-2.34,2.61-4.3,3.34-5.56c0.2,0.1,0.39,0.16,0.6,0.18
			c0.98,0.08,1.79-0.89,2.19-1.38C116.95,65.49,116.63,59.59,116.63,59.59z"/>
	</g>
</g>
<g id="hair">
	<g id="hair2_34_">
		<path class="st1" d="M126.99,65.47c1-3.41,0.52-6.74-0.98-10.03c-1.11-2.43-1.89-5.06-0.8-7.82c0.75-1.89-0.33-4.02,0.11-5.69
			c1.24-4.66-1.71-8.5-1.96-12.84c-0.1-1.79-1.84-3.51-2.04-5.63c-0.11-1.16-1.04-2.08-2.04-2.74c-0.66-0.44-0.86-0.95-0.91-1.75
			c-0.22-3.65-1.79-5.56-5.37-6.41c-1.03-0.24-1.57-0.68-1.92-1.62c-1.45-3.88-4.25-5.8-8.4-5.49c-1.44,0.11-2.21-0.55-3.04-1.56
			c-2.75-3.36-5.32-4.06-9.49-2.76c-0.86,0.27-1.73,0.54-2.58,0.84c-0.56,0.19-1.09,0.3-1.7,0.12C83.47,1.35,81.07,0.69,78.68,0
			c-1.04,0-2.08,0-3.12,0c-1.96,0.83-3.9,1.71-5.35,3.33c-1.25,1.38-2.8,1.92-4.6,2.17c-3,0.41-6.01,1.18-7.77,3.88
			c-1.55,2.38-3.67,3.95-5.96,5.46c-3.29,2.16-5.42,5.13-6.08,9.11c-0.14,0.85-0.12,1.79-0.78,2.56c-3.38,3.92-2.7,8.84-3.27,13.45
			c-0.02,0.12,0.04,0.26,0.08,0.38c0.24,0.72,0.11,1.39-0.21,2.07c-1.23,2.68-0.97,5.34,0.45,7.84c0.8,1.42,0.57,2.52-0.37,3.7
			c-1.32,1.66-2.28,3.58-2.37,5.67c-0.18,4.33-0.48,8.73,1.13,12.9c0.69,1.77,0.82,3.42,0.17,5.26c-0.56,1.58-0.73,3.28-0.43,5
			c0.81,4.69,3.53,7.89,7.79,9.73c2.08,0.9,2.87,2.27,2.96,4.46c0.15,3.7,1.91,6.68,4.71,9.05c1.26,1.07,2.86,1.52,4.45,2.28
			c3.64,0.47,6.65,0.75,8.75,0.92c6.93,0.57,16.72,1.32,28.75-0.05c2.96-0.34,5.37-0.73,6.9-1c7.02-1.23,10.81-5.39,12.08-12.07
			c0.05-0.25,0.19-0.48,0.23-0.74c0.27-1.58,1.15-2.43,2.74-2.86c3.15-0.86,5.18-3.01,6.4-6.04c1.48-3.69,1.22-7.36,0.19-11.07
			c-0.27-0.98-0.79-1.95-0.5-3.03C126.26,70.07,126.32,67.73,126.99,65.47z"/>
	</g>
</g>
<g id="shirt">
	<path class="st2" d="M137.82,164.97c-3.04-19.87-3.94-28.71-10-40.06c-6.28-11.76-12.04-14.79-15.25-16.01
		c-6.02-2.28-11.73-1.41-14.97-0.62c-9.39-0.04-18.79-0.08-28.18-0.11c-3.4-0.51-8.7-0.74-14.05,1.71l0,0
		c-3.92,1.17-12.18,5.85-18.25,15.02c-6.27,9.47-7.23,19.33-10.77,39.86c-1.25,7.26-3.21,18.17-5.94,31.62
		c1.83,0.58,4.06,1.12,6.64,1.4c4.47,0.48,8.25-0.02,10.92-0.61c0.02-2.06,0.08-5.16,0.27-8.92c0.56-11.01,0.93-18.07,3.32-25.71
		c1.27-4.05,3.58-9.75,8.05-16.05c0.78,25,0.63,52.09-0.94,80.99c-1.71,31.33-4.85,60.41-8.78,86.94
		c31.02-1.69,62.05-3.37,93.07-5.06c-5.8-30.36-9.88-57.24-12.82-79.79c-2.01-15.42-4.51-36.68-6.63-61.99
		c-0.81-9.63-1.4-17.85-1.81-24.08c6.64,7.45,9.54,14.4,10.94,18.97c2.22,7.27,2.47,14.45,2.83,25.77c0.12,3.77,0.12,6.87,0.1,8.92
		c2.66,0.64,6.44,1.21,10.91,0.82c2.58-0.23,4.82-0.73,6.66-1.27C140.68,183.2,138.93,172.26,137.82,164.97z"/>
</g>
<g id="skin">
	<path class="st0" d="M68.09,312.89c0.12,2.15,0.34,5.72,0.72,10.13c1.61,18.54,3.87,25.72-0.2,28.95
		c-2.33,1.85-6.05,1.94-7.46,1.98c-1.2,0.03-5.43,0.14-8.03-1.88c-3.04-2.36-2.94-6.91-2.2-16.95c0.44-6,1.07-13.21,1.99-21.39
		C57.98,313.44,63.04,313.16,68.09,312.89z"/>
	<path class="st0" d="M106.59,310.79c-0.12,2.54-0.35,6.61-0.79,11.59c-1.59,18.14-3.99,25.63,0.2,28.95
		c2.33,1.85,6.05,1.94,7.47,1.98c1.2,0.03,5.43,0.14,8.03-1.88c3.38-2.63,2.97-8.03,2.2-16.95c-0.94-10.82-1.73-19.28-2.22-24.49
		C116.51,310.25,111.55,310.52,106.59,310.79z"/>
	<path class="st0" d="M126.05,197.23c0.07,0.47,0.12,1.13,0,1.9c-0.61,3.86-4.71,5.7-4.45,6.42c0.16,0.44,1.68,0.35,6.8-1.41
		c-7.94,12.75-9.32,22.75-4.86,25.22c2.95,1.64,8.59,0.03,12.21-2.72c5.26-4,5.34-12.09,6.02-24.65c0.11-2.11,0.15-3.87,0.16-5.13
		c-2.08,0.63-5.04,1.29-8.64,1.29C130.37,198.15,127.91,197.71,126.05,197.23z"/>
	<path class="st0" d="M37.51,197.25c-0.08,0.47-0.14,1.13-0.03,1.9c0.53,3.87,4.6,5.79,4.33,6.5c-0.17,0.44-1.68,0.32-6.78-1.54
		c7.7,12.9,8.89,22.92,4.39,25.31c-2.98,1.58-8.6-0.14-12.16-2.95c-5.18-4.1-5.11-12.19-5.55-24.76c-0.07-2.11-0.08-3.88-0.06-5.13
		c2.07,0.67,5.02,1.39,8.61,1.45C33.17,198.08,35.64,197.69,37.51,197.25z"/>
	<g id="skin2_67_">
		<path class="st0" d="M116.5,59.59c0,0-0.2-3.85-2.21-5.94c-0.23-0.23-0.72-0.73-1.39-0.76c-0.47-0.02-0.95,0.2-1.47,0.66
			c-0.11,0.09-0.21,0.19-0.31,0.29c-0.19-4.63-0.97-8.97-3.75-12.65c-9.88-13.07-38.27-11.5-46.95,1.67
			c-2.13,3.24-2.8,6.76-3.02,11.91c-0.37-0.45-0.75-0.86-1.16-1.22c-0.52-0.46-1.01-0.68-1.49-0.66c-0.69,0.03-1.18,0.52-1.41,0.76
			c-2.03,2.09-2.24,5.94-2.24,5.94s-0.32,6.01,4.7,12c0.55,0.66,1.32,1.46,2.22,1.38c0.26-0.02,0.51-0.11,0.75-0.27
			c0.64,2.15,1.54,4.33,2.85,6.21c1.27,1.83,2.47,2.27,3.11,2.43c1.16,0.29,2.46,0.02,3.96-0.76c2.05-1.07,3.79-2.5,5.19-4.34
			c1.12-1.47,2.56-2.28,4.39-2.63c2.59-0.48,5.18-0.34,7.78-0.29c3.73,0.07,7.15,1.09,10.14,3.42c1.49,1.15,3.05,2.17,4.85,2.84
			c1.93,0.72,3.51,0.27,4.7-1.25c1.36-1.74,2.47-3.61,3.34-5.56c0.2,0.1,0.39,0.16,0.6,0.18c0.88,0.07,1.64-0.72,2.19-1.38
			C116.82,65.6,116.5,59.59,116.5,59.59z"/>
		<path class="st0" d="M74.2,115.46c0,0-0.36-0.3-0.74-0.64c-1.76-1.59-2.99-3.54-4.05-5.64c-0.56-1.12-0.36-1.56,0.86-1.82
			c4.45-0.95,8.95-1.46,13.48-1.41c4.4,0.04,8.77,0.52,13.05,1.66c0.61,0.16,0.96,0.35,1.07,0.62c0.16,0.4-0.15,0.87-0.29,1.06
			c-3.32,4.88-4.69,5.9-4.69,5.9c-1.1,0.82-4.25,3.1-8.94,3.28c0,0-5.05,0.19-9.21-2.61C74.46,115.67,74.2,115.46,74.2,115.46z"/>
		<path class="st0" d="M86.42,77.85c1.99,0.22,3.05,0.33,3.79,1.2c0.73,0.86,0.95,2.17,0.6,3.87c-0.3,1.47-0.86,2.87-1.76,4.08
			c-0.65,0.87-1.35,1.99-2.61,1.68c-1.27-0.32-1.38-1.61-1.47-2.71c-0.09-1,0.01-1.94-1.52-1.75c-0.83,0.11-1.09,0.34-1.14,1.16
			c-0.09,1.28-0.14,2.86-1.65,3.19c-1.63,0.35-2.52-1.04-3.34-2.22c-0.29-0.42-0.52-0.9-0.72-1.38c-1.02-2.43-1.15-4.19-0.38-5.33
			c0.63-0.92,2.06-1.15,4.96-1.6C83.88,77.62,85.64,77.76,86.42,77.85z"/>
		<path class="st0" d="M78.11,104.57c-0.02-2.06-0.07-2.58,0.32-2.86c0.38-0.27,0.87-0.17,1.72,0.14c2.66,0.95,5.39,1.14,8.12,0.39
			c0.46-0.13,1.27-0.68,1.38,0.28c0.19,1.72,0.19,3.6-0.02,5.31c-0.12,0.97-0.89,0.25-1.36,0.17c-2.72-0.49-5.46-0.54-8.16-0.14
			c-0.64,0.09-1.18,0.11-1.59-0.25C78.08,107.25,78.13,106.72,78.11,104.57z"/>
	</g>
</g>
<g id="shoes">
	<path class="st1" d="M64.76,347.85c-0.69,0.04-0.46-4.83-3.11-7.61c-2.59-2.71-7.18-2.65-11.08-2.01c0.06-0.56,0.12-1.12,0.19-1.69
		c0.08-0.74,0.17-1.47,0.25-2.21c1.47-0.13,4.42-0.2,7.75,1.18c3.09,1.28,5.04,3.2,6,4.29c0.78-1.14,2.08-2.64,4.07-3.75
		c0.49-0.27,0.97-0.49,1.42-0.67c0.14,1.16,0.28,2.31,0.42,3.47c-0.64,0-1.71,0.09-2.7,0.74C64.76,341.72,65.54,347.81,64.76,347.85
		z"/>
	<path class="st1" d="M71,346.94c-0.72,0.98-2.16,2.65-4.51,3.87c-0.96,0.49-4.79,2.4-9.39,0.97c-4.06-1.27-6.12-4.33-6.67-5.21
		c0.08,1.15,0.39,3.23,1.84,5.12c3.41,4.41,9.79,3.5,10.97,3.29c1.4-0.24,5.85-1,7.35-4.5C71.18,349.12,71.12,347.8,71,346.94z"/>
	<path class="st1" d="M109.85,347.22c0.69,0.04,0.46-4.83,3.11-7.61c2.59-2.71,7.18-2.65,11.08-2.01c-0.06-0.56-0.12-1.12-0.19-1.69
		c-0.08-0.74-0.17-1.47-0.25-2.21c-1.47-0.13-4.42-0.2-7.75,1.18c-3.09,1.28-5.04,3.2-6.01,4.29c-0.78-1.14-2.08-2.64-4.07-3.75
		c-0.49-0.27-0.97-0.49-1.42-0.67c-0.14,1.16-0.28,2.31-0.42,3.47c0.64,0,1.71,0.09,2.7,0.74
		C109.86,341.09,109.08,347.18,109.85,347.22z"/>
	<path class="st1" d="M103.62,346.32c0.72,0.98,2.16,2.65,4.51,3.87c0.96,0.49,4.79,2.4,9.39,0.97c4.06-1.27,6.12-4.33,6.67-5.21
		c-0.08,1.15-0.39,3.23-1.84,5.12c-3.41,4.41-9.8,3.5-10.98,3.29c-1.4-0.24-5.85-1-7.36-4.5
		C103.44,348.5,103.49,347.18,103.62,346.32z"/>
</g>
<g id="eyes">
	<g id="eyes2_34_">
		<path class="st3" d="M71.81,55.59c-0.23,1.16-1.27,2.31-2.66,2.33c-1.45,0.03-2.55-1.17-2.77-2.38c-0.32-1.73,1.16-3.63,2.86-3.56
			C70.86,52.06,72.14,53.93,71.81,55.59z"/>
		<path class="st3" d="M101.58,55.59c-0.23,1.16-1.27,2.31-2.66,2.33c-1.45,0.03-2.55-1.17-2.77-2.38
			c-0.32-1.73,1.16-3.63,2.86-3.56C100.63,52.06,101.92,53.93,101.58,55.59z"/>
	</g>
</g>
</svg>
